<?xml version="1.0" encoding="utf-8"?>
<!-- Generator: Adobe Illustrator 27.2.0, SVG Export Plug-In . SVG Version: 6.00 Build 0)  -->
<svg version="1.1" id="Capa_1" xmlns="http://www.w3.org/2000/svg" xmlns:xlink="http://www.w3.org/1999/xlink" x="0px" y="0px"
	 viewBox="0 0 1920 650" style="enable-background:new 0 0 1920 650;" xml:space="preserve">
<style type="text/css">
	.st0{fill:#141414;}
	.st1{clip-path:url(#SVGID_00000181054397145554282260000008152404797442218162_);}
	.st2{opacity:0.2;}
	.st3{fill:#0A0A0A;}
	.st4{clip-path:url(#SVGID_00000170271805320047806860000007219180422091577482_);}
	.st5{fill:#1E1E1E;}
	.st6{fill:none;}
	.st7{opacity:0.2;fill:#FBFBFB;enable-background:new    ;}
	.st8{fill:#262626;}
	.st9{clip-path:url(#SVGID_00000033331184462363947940000011900436449902890411_);}
	.st10{fill:#FBFBFB;}
	.st11{opacity:0.21;}
</style>
<g>
	<g id="OBJECTS">
		<g>
			<rect x="0" class="st0" width="1920" height="650"/>
			<g>
				<defs>
					<rect id="SVGID_1_" x="154.4" y="61.2" width="1592.5" height="541.4"/>
				</defs>
				<clipPath id="SVGID_00000152947423653922650060000013121441683889822893_">
					<use xlink:href="#SVGID_1_"  style="overflow:visible;"/>
				</clipPath>
				<g style="clip-path:url(#SVGID_00000152947423653922650060000013121441683889822893_);">
					<g class="st2">
						<path class="st3" d="M1544.7,425.4l-87.4-25.7c-7.3-2.2-11.9-6.2-11.9-10.5v-51.5c0-4.3,4.6-8.3,11.9-10.5l87.4-25.7
							c7.3-2.2,16.4-2.2,23.8,0l87.4,25.7c7.3,2.2,11.9,6.2,11.9,10.5v51.5c0,4.3-4.6,8.3-11.9,10.5l-87.4,25.7
							c-3.7,1.1-7.8,1.6-11.9,1.6S1548.3,426.4,1544.7,425.4z M1548,304.4l-87.4,25.7c-5.3,1.5-8.5,4.4-8.5,7.5v51.5
							c0,3.1,3.3,6,8.5,7.5l87.4,25.7c5.3,1.5,11.8,1.5,17.1,0l87.4-25.7c5.3-1.5,8.5-4.4,8.5-7.5v-51.5c0-3.1-3.3-6-8.5-7.5
							l-87.4-25.7c-2.6-0.8-5.6-1.2-8.5-1.2S1550.6,303.6,1548,304.4L1548,304.4z"/>
						<path class="st3" d="M1814.8,606.7l-87.4-25.7c-7.3-2.2-11.9-6.2-11.9-10.5v-51.5c0-4.3,4.6-8.3,11.9-10.5l87.4-25.7
							c7.3-2.2,16.4-2.2,23.8,0l87.4,25.7c7.3,2.2,11.9,6.2,11.9,10.5v51.5c0,4.3-4.6,8.3-11.9,10.5l-87.4,25.7
							c-3.7,1.1-7.8,1.6-11.9,1.6S1818.4,607.7,1814.8,606.7z M1818.1,485.7l-87.4,25.7c-5.3,1.5-8.5,4.4-8.5,7.5v51.5
							c0,3.1,3.3,6,8.5,7.5l87.4,25.7c5.3,1.5,11.8,1.5,17.1,0l87.4-25.7c5.3-1.5,8.5-4.4,8.5-7.5v-51.5c0-3.1-3.3-6-8.5-7.5
							l-87.4-25.7c-2.6-0.8-5.6-1.2-8.5-1.2S1820.7,484.9,1818.1,485.7L1818.1,485.7z"/>
						<path class="st3" d="M209.4,275.4l-61-18c-5.4-1.6-8.8-4.6-8.8-7.8v-35.9c0-3.2,3.4-6.2,8.8-7.8l61-18
							c5.4-1.6,12.2-1.6,17.6,0l61,18c5.4,1.6,8.8,4.6,8.8,7.8v35.9c0,3.2-3.4,6.2-8.8,7.8l-61,18c-2.7,0.8-5.8,1.2-8.8,1.2
							S212.1,276.2,209.4,275.4L209.4,275.4z M212.8,191l-61,18c-3.4,1-5.5,2.8-5.5,4.8v35.9c0,2,2.1,3.8,5.5,4.8l61,18
							c3.4,1,7.5,1,10.9,0l61-18c3.4-1,5.5-2.8,5.5-4.8v-35.9c0-2-2.1-3.8-5.5-4.8l-61-18c-1.7-0.5-3.6-0.7-5.5-0.7
							S214.4,190.5,212.8,191L212.8,191z"/>
						<path class="st3" d="M1093.8,157.3l-61-18c-5.4-1.6-8.8-4.6-8.8-7.8V95.6c0-3.2,3.4-6.2,8.8-7.8l61-18
							c5.4-1.6,12.2-1.6,17.6,0l61,18c5.4,1.6,8.8,4.6,8.8,7.8v35.9c0,3.2-3.4,6.2-8.8,7.8l-61,18c-2.7,0.8-5.8,1.2-8.8,1.2
							S1096.6,158.1,1093.8,157.3L1093.8,157.3z M1097.2,72.8l-61,18c-3.4,1-5.4,2.8-5.4,4.8v35.9c0,2,2.1,3.8,5.4,4.8l61,18
							c3.4,1,7.5,1,10.9,0l61-18c3.4-1,5.4-2.8,5.4-4.8V95.6c0-2-2.1-3.8-5.4-4.8l-61-18c-1.7-0.5-3.6-0.7-5.4-0.7
							S1098.9,72.4,1097.2,72.8L1097.2,72.8z"/>
						<path class="st3" d="M386.9,302.4l-23.1-6.8c-2.7-0.8-4.4-2.3-4.4-3.9v-13.6c0-1.6,1.7-3.1,4.4-3.9l23.1-6.8
							c2.7-0.8,6-0.8,8.8,0l23.1,6.8c2.7,0.8,4.4,2.3,4.4,3.9v13.6c0,1.6-1.7,3.1-4.4,3.9l-23.1,6.8c-1.3,0.4-2.9,0.6-4.4,0.6
							S388.2,302.8,386.9,302.4L386.9,302.4z M390.2,270.5l-23.1,6.8c-0.6,0.2-1,0.5-1,0.9v13.6c0,0.4,0.4,0.7,1,0.9l23.1,6.8
							c0.6,0.2,1.4,0.2,2,0l23.1-6.8c0.6-0.2,1-0.5,1-0.9v-13.6c0-0.4-0.4-0.7-1-0.9l-23.1-6.8c-0.3-0.1-0.7-0.1-1-0.1
							S390.5,270.4,390.2,270.5L390.2,270.5z"/>
						<path class="st3" d="M523.9,609.8l-169.1-49.8c-13.2-3.9-21.4-11.2-21.4-18.9v-99.6c0-7.8,8.2-15,21.4-18.9l169.1-49.8
							c13.2-3.9,29.7-3.9,42.9,0L736,422.6c13.2,3.9,21.4,11.1,21.4,18.9v99.6c0,7.8-8.2,15-21.4,18.9l-169.1,49.8
							c-6.6,2-14,2.9-21.4,2.9S530.6,611.8,523.9,609.8z M527.3,375.8l-169.1,49.8c-11.2,3.3-18.1,9.4-18.1,16v99.6
							c0,6.6,6.9,12.7,18.1,16l169.1,49.8c11.2,3.3,25,3.3,36.2,0l169.1-49.8c11.2-3.3,18.1-9.4,18.1-16v-99.6
							c0-6.6-6.9-12.7-18.1-16l-169.1-49.8c-5.6-1.6-11.8-2.5-18.1-2.5S532.9,374.1,527.3,375.8L527.3,375.8z"/>
						<path class="st3" d="M1445.4,289.5l-169.1-49.8c-13.2-3.9-21.4-11.1-21.4-18.9v-99.6c0-7.8,8.2-15,21.4-18.9l169.1-49.8
							c13.2-3.9,29.7-3.9,42.9,0l169.1,49.8c13.2,3.9,21.4,11.2,21.4,18.9v99.6c0,7.8-8.2,15-21.4,18.9l-169.1,49.8
							c-6.6,2-14,2.9-21.4,2.9S1452,291.5,1445.4,289.5L1445.4,289.5z M1448.7,55.4l-169.1,49.8c-11.2,3.3-18.1,9.4-18.1,16v99.6
							c0,6.6,6.9,12.7,18.1,16l169.1,49.8c11.2,3.3,25,3.3,36.2,0l169.1-49.8c11.2-3.3,18.1-9.4,18.1-16v-99.6
							c0-6.6-6.9-12.7-18.1-16l-169.1-49.8c-5.6-1.6-11.8-2.5-18.1-2.5C1460.6,52.9,1454.3,53.8,1448.7,55.4L1448.7,55.4z"/>
						<path class="st3" d="M843.4,559v18.1c0,1.6-1,3-2.5,3.4l-36.2,10.7c-0.7,0.2-1.3,0.2-2,0l-36.2-10.7c-1.5-0.4-2.5-1.8-2.5-3.4
							V559c0-1.6,1-3,2.5-3.4l36.2-10.7c0.7-0.2,1.3-0.2,2,0l36.2,10.7C842.4,556.1,843.4,557.5,843.4,559z"/>
						<path class="st3" d="M1389.7,145.3v18.1c0,1.6-1,3-2.6,3.4l-36.2,10.7c-0.7,0.2-1.3,0.2-2,0l-36.2-10.7
							c-1.5-0.4-2.6-1.8-2.6-3.4v-18.1c0-1.6,1-3,2.6-3.4l36.2-10.7c0.7-0.2,1.3-0.2,2,0l36.2,10.7
							C1388.6,142.4,1389.7,143.8,1389.7,145.3z"/>
						<path class="st3" d="M1452,238.9v12.7c0,1.1-0.7,2.1-1.8,2.4l-25.5,7.5c-0.5,0.1-0.9,0.1-1.4,0l-25.5-7.5
							c-1.1-0.3-1.8-1.3-1.8-2.4v-12.7c0-1.1,0.7-2.1,1.8-2.4l25.5-7.5c0.5-0.1,0.9-0.1,1.4,0l25.5,7.5
							C1451.3,236.8,1452,237.8,1452,238.9z"/>
						<path class="st3" d="M553.8,317.4v12.7c0,1.1-0.7,2.1-1.8,2.4l-25.5,7.5c-0.5,0.1-1,0.1-1.4,0l-25.5-7.5
							c-1.1-0.3-1.8-1.3-1.8-2.4v-12.7c0-1.1,0.7-2.1,1.8-2.4l25.5-7.5c0.5-0.1,1-0.1,1.4,0L552,315
							C553.1,315.3,553.8,316.2,553.8,317.4z"/>
						<path class="st3" d="M1225.2,157.3v12.7c0,1.1-0.7,2.1-1.8,2.4l-25.5,7.5c-0.5,0.1-0.9,0.1-1.4,0l-25.5-7.5
							c-1.1-0.3-1.8-1.3-1.8-2.4v-12.7c0-1.1,0.7-2.1,1.8-2.4l25.5-7.5c0.5-0.1,0.9-0.1,1.4,0l25.5,7.5
							C1224.4,155.2,1225.2,156.2,1225.2,157.3z"/>
						<path class="st3" d="M1193.7,184.7v12.7c0,1.1-0.7,2.1-1.8,2.4l-25.5,7.5c-0.5,0.1-0.9,0.1-1.4,0l-25.5-7.5
							c-1.1-0.3-1.8-1.3-1.8-2.4v-12.7c0-1.1,0.7-2.1,1.8-2.4l25.5-7.5c0.5-0.1,0.9-0.1,1.4,0l25.5,7.5
							C1193,182.6,1193.7,183.6,1193.7,184.7L1193.7,184.7z"/>
						<path class="st3" d="M1162.3,157.3v12.7c0,1.1-0.7,2.1-1.8,2.4L1135,180c-0.5,0.1-0.9,0.1-1.4,0l-25.5-7.5
							c-1.1-0.3-1.8-1.3-1.8-2.4v-12.7c0-1.1,0.7-2.1,1.8-2.4l25.5-7.5c0.5-0.1,0.9-0.1,1.4,0l25.5,7.5
							C1161.6,155.2,1162.3,156.2,1162.3,157.3z"/>
						<path class="st3" d="M1601.9,330.9v9.7c0,0.9-0.6,1.6-1.4,1.8l-19.5,5.7c-0.3,0.1-0.7,0.1-1.1,0l-19.5-5.7
							c-0.8-0.2-1.4-1-1.4-1.8v-9.7c0-0.9,0.6-1.6,1.4-1.8l19.5-5.7c0.3-0.1,0.7-0.1,1.1,0l19.5,5.7
							C1601.3,329.3,1601.9,330,1601.9,330.9z"/>
						<path class="st3" d="M1577.9,351.8v9.7c0,0.9-0.6,1.6-1.4,1.8l-19.5,5.7c-0.3,0.1-0.7,0.1-1.1,0l-19.5-5.7
							c-0.8-0.2-1.4-1-1.4-1.8v-9.7c0-0.9,0.6-1.6,1.4-1.8l19.5-5.7c0.3-0.1,0.7-0.1,1.1,0l19.5,5.7
							C1577.3,350.2,1577.9,350.9,1577.9,351.8z"/>
						<path class="st3" d="M1553.9,330.9v9.7c0,0.9-0.6,1.6-1.4,1.8l-19.5,5.7c-0.3,0.1-0.7,0.1-1.1,0l-19.5-5.7
							c-0.8-0.2-1.4-1-1.4-1.8v-9.7c0-0.9,0.6-1.6,1.4-1.8l19.5-5.7c0.3-0.1,0.7-0.1,1.1,0l19.5,5.7
							C1553.3,329.3,1553.9,330,1553.9,330.9z"/>
						<path class="st3" d="M381,290v27.2c0,2.4-1.5,4.4-3.8,5.1l-54.3,16c-1,0.3-2,0.3-3,0l-54.3-16c-2.3-0.7-3.8-2.7-3.8-5.1V290
							c0-2.4,1.5-4.4,3.8-5.1l54.3-16c1-0.3,2-0.3,3,0l54.3,16C379.4,285.5,381,287.6,381,290z"/>
						<path class="st3" d="M1684.3,496.6l-23.1-6.8c-2.7-0.8-4.4-2.3-4.4-3.9v-13.6c0-1.6,1.7-3.1,4.4-3.9l23.1-6.8
							c2.7-0.8,6.1-0.8,8.8,0l23.1,6.8c2.7,0.8,4.4,2.3,4.4,3.9v13.6c0,1.6-1.7,3.1-4.4,3.9l-23.1,6.8c-1.3,0.4-2.9,0.6-4.4,0.6
							S1685.6,497,1684.3,496.6L1684.3,496.6z M1687.6,464.6l-23.1,6.8c-0.6,0.2-1,0.5-1,0.9v13.6c0,0.4,0.4,0.7,1,0.9l23.1,6.8
							c0.6,0.2,1.4,0.2,2,0l23.1-6.8c0.6-0.2,1-0.5,1-0.9v-13.6c0-0.4-0.4-0.7-1-0.9l-23.1-6.8c-0.3-0.1-0.7-0.1-1-0.1
							S1688,464.5,1687.6,464.6z"/>
						<path class="st3" d="M1257,59.2v27.2c0,2.4-1.6,4.4-3.8,5.1l-54.3,16c-1,0.3-2,0.3-3,0l-54.3-16c-2.3-0.7-3.8-2.7-3.8-5.1
							V59.2c0-2.4,1.6-4.4,3.8-5.1l54.3-16c1-0.3,2-0.3,3,0l54.3,16C1255.5,54.8,1257,56.8,1257,59.2z"/>
						<path class="st3" d="M718.3,488v35.9c0,3.1-2.1,5.9-5,6.8l-71.9,21.2c-1.3,0.4-2.7,0.4-4,0l-71.9-21.2c-3-0.9-5-3.6-5-6.8V488
							c0-3.1,2.1-5.9,5-6.8l71.9-21.2c1.3-0.4,2.7-0.4,4,0l71.9,21.2C716.2,482.1,718.3,484.9,718.3,488z"/>
						<path class="st3" d="M1191,577.7v35.9c0,3.1-2.1,5.9-5.1,6.8l-71.9,21.2c-1.3,0.4-2.7,0.4-4,0l-71.9-21.2
							c-3-0.9-5.1-3.6-5.1-6.8v-35.9c0-3.1,2.1-5.9,5.1-6.8l71.9-21.2c1.3-0.4,2.7-0.4,4,0L1186,571
							C1189,571.9,1191,574.6,1191,577.7z"/>
						<path class="st3" d="M1337.1,213.8v35.9c0,3.1-2.1,5.9-5.1,6.8l-71.9,21.2c-1.3,0.4-2.7,0.4-4,0l-71.9-21.2
							c-3-0.9-5.1-3.6-5.1-6.8v-35.9c0-3.1,2.1-5.9,5.1-6.8l71.9-21.2c1.3-0.4,2.7-0.4,4,0L1332,207
							C1335,207.9,1337.1,210.6,1337.1,213.8z"/>
						<path class="st3" d="M1739.7,67.3v35.9c0,3.1-2.1,5.9-5.1,6.8l-71.9,21.2c-1.3,0.4-2.7,0.4-4,0l-71.9-21.2
							c-3-0.9-5.1-3.6-5.1-6.8V67.3c0-3.1,2.1-5.9,5.1-6.8l71.9-21.2c1.3-0.4,2.7-0.4,4,0l71.9,21.2
							C1737.6,61.4,1739.7,64.2,1739.7,67.3z"/>
						<path class="st3" d="M1566.3,67.3v35.9c0,3.1-2.1,5.9-5.1,6.8l-71.9,21.2c-1.3,0.4-2.7,0.4-4,0l-71.9-21.2
							c-3-0.9-5.1-3.6-5.1-6.8V67.3c0-3.1,2.1-5.9,5.1-6.8l71.9-21.2c1.3-0.4,2.7-0.4,4,0l71.9,21.2
							C1564.3,61.4,1566.3,64.2,1566.3,67.3z"/>
						<path class="st3" d="M869,508.3v8c0,0.7-0.5,1.3-1.1,1.5l-16,4.7c-0.3,0.1-0.6,0.1-0.9,0l-16-4.7c-0.7-0.2-1.1-0.8-1.1-1.5v-8
							c0-0.7,0.5-1.3,1.1-1.5l16-4.7c0.3-0.1,0.6-0.1,0.9,0l16,4.7C868.5,507,869,507.6,869,508.3z"/>
						<path class="st3" d="M290.1,163.7v8c0,0.7-0.5,1.3-1.1,1.5l-16,4.7c-0.3,0.1-0.6,0.1-0.9,0l-16-4.7c-0.7-0.2-1.1-0.8-1.1-1.5
							v-8c0-0.7,0.5-1.3,1.1-1.5l16-4.7c0.3-0.1,0.6-0.1,0.9,0l16,4.7C289.7,162.4,290.1,163,290.1,163.7z"/>
						<path class="st3" d="M771.9,458v8c0,0.7-0.5,1.3-1.1,1.5l-16,4.7c-0.3,0.1-0.6,0.1-0.9,0l-16-4.7c-0.7-0.2-1.1-0.8-1.1-1.5v-8
							c0-0.7,0.5-1.3,1.1-1.5l16-4.7c0.3-0.1,0.6-0.1,0.9,0l16,4.7C771.5,456.7,771.9,457.3,771.9,458z"/>
						<path class="st3" d="M1462.9,189.4v8c0,0.7-0.5,1.3-1.1,1.5l-16,4.7c-0.3,0.1-0.6,0.1-0.9,0l-16-4.7c-0.7-0.2-1.1-0.8-1.1-1.5
							v-8c0-0.7,0.5-1.3,1.1-1.5l16-4.7c0.3-0.1,0.6-0.1,0.9,0l16,4.7C1462.4,188.1,1462.9,188.7,1462.9,189.4z"/>
						<path class="st3" d="M242.9,348.9v8c0,0.7-0.5,1.3-1.1,1.5l-16,4.7c-0.3,0.1-0.6,0.1-0.9,0l-16-4.7c-0.7-0.2-1.1-0.8-1.1-1.5
							v-8c0-0.7,0.5-1.3,1.1-1.5l16-4.7c0.3-0.1,0.6-0.1,0.9,0l16,4.7C242.4,347.6,242.9,348.2,242.9,348.9z"/>
						<path class="st3" d="M910.8,528.3v8c0,0.7-0.5,1.3-1.1,1.5l-16,4.7c-0.3,0.1-0.6,0.1-0.9,0l-16-4.7c-0.7-0.2-1.1-0.8-1.1-1.5
							v-8c0-0.7,0.5-1.3,1.1-1.5l16-4.7c0.3-0.1,0.6-0.1,0.9,0l16,4.7C910.4,527,910.8,527.7,910.8,528.3z"/>
						<path class="st3" d="M1519.8,409v8c0,0.7-0.5,1.3-1.1,1.5l-16,4.7c-0.3,0.1-0.6,0.1-0.9,0l-16-4.7c-0.7-0.2-1.1-0.8-1.1-1.5
							v-8c0-0.7,0.5-1.3,1.1-1.5l16-4.7c0.3-0.1,0.6-0.1,0.9,0l16,4.7C1519.3,407.7,1519.8,408.3,1519.8,409z"/>
						<path class="st3" d="M1137.8,109.6v8c0,0.7-0.5,1.3-1.1,1.5l-16,4.7c-0.3,0.1-0.6,0.1-0.9,0l-16-4.7c-0.7-0.2-1.1-0.8-1.1-1.5
							v-8c0-0.7,0.5-1.3,1.1-1.5l16-4.7c0.3-0.1,0.6-0.1,0.9,0l16,4.7C1137.3,108.3,1137.8,108.9,1137.8,109.6z"/>
						<path class="st3" d="M1646.1,143.8v8c0,0.7-0.5,1.3-1.1,1.5l-16,4.7c-0.3,0.1-0.6,0.1-0.9,0l-16-4.7c-0.7-0.2-1.1-0.8-1.1-1.5
							v-8c0-0.7,0.5-1.3,1.1-1.5l16-4.7c0.3-0.1,0.6-0.1,0.9,0l16,4.7C1645.7,142.5,1646.1,143.1,1646.1,143.8z"/>
					</g>
				</g>
			</g>
			<g>
				<defs>
					<rect id="SVGID_00000113333079915337260310000013029455781373600664_" x="1274.3" y="175.5" width="645.7" height="474.5"/>
				</defs>
				<clipPath id="SVGID_00000074427216143614257740000015773629134620505475_">
					<use xlink:href="#SVGID_00000113333079915337260310000013029455781373600664_"  style="overflow:visible;"/>
				</clipPath>
				<g style="clip-path:url(#SVGID_00000074427216143614257740000015773629134620505475_);">
					<g>
						<g>
							<path class="st5" d="M1708.5,531.5v191.1c0,13.8,8.3,26.6,21.7,33.5l185.4,95.5c13.4,6.9,29.9,6.9,43.3,0l185.4-95.5
								c13.4-6.9,21.7-19.7,21.7-33.5V531.6c0-13.8-8.3-26.6-21.7-33.5l-185.4-95.5c-13.4-6.9-29.9-6.9-43.3,0l-185.4,95.5
								C1716.7,505,1708.5,517.7,1708.5,531.5L1708.5,531.5z"/>
							<path class="st6" d="M2144.3,498.1l-185.4-95.5c-13.4-6.9-29.9-6.9-43.3,0l-185.4,95.5c-13.4,6.9-21.7,19.7-21.7,33.5v191.1
								c0,13.8,8.3,26.6,21.7,33.5l185.4,95.5c13.4,6.9,29.9,6.9,43.3,0l185.4-95.5c13.4-6.9,21.7-19.7,21.7-33.5V531.6
								C2166,517.7,2157.7,505,2144.3,498.1L2144.3,498.1z M2164.8,722.6c0,13.4-8.1,25.9-21.1,32.6l-185.4,95.5
								c-6.4,3.3-13.7,5-21.1,5s-14.7-1.7-21.1-5l-185.4-95.5c-13-6.7-21.1-19.2-21.1-32.6V531.6c0-13.4,8.1-25.9,21.1-32.6
								l185.4-95.5c6.4-3.3,13.7-5,21.1-5s14.7,1.7,21.1,5l185.4,95.5c13,6.7,21.1,19.2,21.1,32.6V722.6z"/>
						</g>
						<g>
							<path class="st5" d="M1526.8,654.5v54.7c0,3.9,2.2,7.5,5.7,9.3l55,28.3c3,1.5,6.6,1.5,9.6,0l55-28.3c3.5-1.8,5.7-5.4,5.7-9.3
								v-54.7c0-3.9-2.2-7.5-5.7-9.3l-55-28.3c-3-1.5-6.6-1.5-9.6,0l-55,28.3C1529,646.9,1526.8,650.5,1526.8,654.5z"/>
							<path class="st7" d="M1651.5,644.9l-53.1-27.3c-3.8-2-8.6-2-12.4,0l-53.1,27.3c-3.8,2-6.2,5.6-6.2,9.6v54.7
								c0,4,2.4,7.6,6.2,9.6l53.1,27.3c3.8,2,8.6,2,12.4,0l53.1-27.3c3.8-2,6.2-5.6,6.2-9.6v-54.7
								C1657.7,650.5,1655.4,646.8,1651.5,644.9z M1657.1,709.1c0,3.8-2.3,7.2-5.9,9.1l-53.1,27.3c-1.8,0.9-3.8,1.4-5.9,1.4
								s-4.1-0.5-5.9-1.4l-53.1-27.3c-3.6-1.9-5.9-5.4-5.9-9.1v-54.7c0-3.8,2.3-7.2,5.9-9.1l53.1-27.3c1.8-0.9,3.8-1.4,5.9-1.4
								s4.1,0.5,5.9,1.4l53.1,27.3c3.6,1.9,5.9,5.4,5.9,9.1V709.1z"/>
						</g>
						<g>
							<path class="st8" d="M1708.5,399.5v60.8c0,4.4,2.4,8.4,6.3,10.4l61.1,31.5c3.3,1.7,7.3,1.7,10.7,0l61.1-31.5
								c3.9-2,6.3-6,6.3-10.4v-60.8c0-4.4-2.4-8.4-6.3-10.4l-61.1-31.5c-3.3-1.7-7.3-1.7-10.7,0l-61.1,31.5
								C1710.9,391.2,1708.5,395.2,1708.5,399.5z"/>
							<path class="st7" d="M1847,388.9l-58.9-30.4c-4.3-2.2-9.5-2.2-13.8,0l-58.9,30.4c-4.3,2.2-6.9,6.3-6.9,10.6v60.8
								c0,4.4,2.6,8.5,6.9,10.6l58.9,30.4c4.3,2.2,9.5,2.2,13.8,0l58.9-30.4c4.3-2.2,6.9-6.3,6.9-10.6v-60.8
								C1853.9,395.1,1851.3,391.1,1847,388.9z M1852.7,460.3c0,4-2.4,7.7-6.3,9.7l-58.9,30.4c-1.9,1-4.1,1.5-6.3,1.5
								s-4.4-0.5-6.3-1.5l-58.9-30.4c-3.9-2-6.3-5.7-6.3-9.7v-60.8c0-4,2.4-7.7,6.3-9.7l58.9-30.4c1.9-1,4.1-1.5,6.3-1.5
								s4.4,0.5,6.3,1.5l58.9,30.4c3.9,2,6.3,5.7,6.3,9.7V460.3z"/>
						</g>
						<g>
							<path class="st8" d="M1587.9,592.5v60.8c0,4.4,2.4,8.4,6.3,10.4l61.1,31.5c3.3,1.7,7.3,1.7,10.7,0l61.1-31.5
								c3.9-2,6.3-6,6.3-10.4v-60.8c0-4.4-2.4-8.4-6.3-10.4l-61.1-31.5c-3.3-1.7-7.3-1.7-10.7,0l-61.1,31.5
								C1590.4,584.2,1587.9,588.2,1587.9,592.5z"/>
							<path class="st7" d="M1726.5,581.9l-58.9-30.4c-4.3-2.2-9.5-2.2-13.8,0l-58.9,30.4c-4.3,2.2-6.9,6.3-6.9,10.7v60.8
								c0,4.4,2.6,8.5,6.9,10.7l58.9,30.4c4.3,2.2,9.5,2.2,13.8,0l58.9-30.4c4.3-2.2,6.9-6.3,6.9-10.7v-60.8
								C1733.4,588.2,1730.8,584.1,1726.5,581.9z M1732.2,653.3c0,4-2.4,7.7-6.3,9.7l-58.9,30.4c-1.9,1-4.1,1.5-6.3,1.5
								s-4.4-0.5-6.3-1.5l-58.9-30.4c-3.9-2-6.3-5.7-6.3-9.7v-60.8c0-4,2.4-7.7,6.3-9.7l58.9-30.4c1.9-1,4.1-1.5,6.3-1.5
								s4.4,0.5,6.3,1.5l58.9,30.4c3.9,2,6.3,5.7,6.3,9.7V653.3z"/>
						</g>
						<g>
							<path class="st8" d="M1807.7,612.2V673c0,4.4,2.4,8.4,6.3,10.4l61.1,31.5c3.3,1.7,7.3,1.7,10.7,0l61.1-31.5
								c3.9-2,6.3-6,6.3-10.4v-60.8c0-4.4-2.4-8.4-6.3-10.4l-61.1-31.5c-3.3-1.7-7.3-1.7-10.7,0l-61.1,31.5
								C1810.2,603.9,1807.7,607.9,1807.7,612.2z"/>
							<path class="st7" d="M1946.3,601.5l-58.9-30.4c-4.3-2.2-9.5-2.2-13.8,0l-58.9,30.4c-4.3,2.2-6.9,6.3-6.9,10.7V673
								c0,4.4,2.6,8.5,6.9,10.7l58.9,30.4c4.3,2.2,9.5,2.2,13.8,0l58.9-30.4c4.3-2.2,6.9-6.3,6.9-10.7v-60.8
								C1953.2,607.8,1950.6,603.8,1946.3,601.5z M1952,673c0,4-2.4,7.7-6.3,9.7l-58.9,30.4c-1.9,1-4.1,1.5-6.3,1.5
								s-4.4-0.5-6.3-1.5l-58.9-30.4c-3.9-2-6.3-5.7-6.3-9.7v-60.8c0-4,2.4-7.7,6.3-9.7l58.9-30.4c1.9-1,4.1-1.5,6.3-1.5
								s4.4,0.5,6.3,1.5l58.9,30.4c3.9,2,6.3,5.7,6.3,9.7V673z"/>
						</g>
						<g>
							<path class="st8" d="M1894.2,216.6v60.8c0,4.4,2.4,8.4,6.3,10.4l61.1,31.5c3.4,1.7,7.3,1.7,10.7,0l61.1-31.5
								c3.9-2,6.3-6,6.3-10.4v-60.8c0-4.4-2.4-8.4-6.3-10.4l-61.1-31.5c-3.4-1.7-7.3-1.7-10.7,0l-61.1,31.5
								C1896.6,208.3,1894.2,212.3,1894.2,216.6L1894.2,216.6z"/>
							<path class="st7" d="M2032.8,206l-58.9-30.4c-4.3-2.2-9.5-2.2-13.8,0l-58.9,30.4c-4.3,2.2-6.9,6.3-6.9,10.6v60.8
								c0,4.4,2.6,8.5,6.9,10.6l58.9,30.4c4.3,2.2,9.5,2.2,13.8,0l58.9-30.4c4.3-2.2,6.9-6.3,6.9-10.6v-60.8
								C2039.6,212.2,2037,208.2,2032.8,206z M2038.5,277.4c0,4-2.4,7.7-6.3,9.7l-58.9,30.4c-1.9,1-4.1,1.5-6.3,1.5
								s-4.4-0.5-6.3-1.5l-58.9-30.4c-3.9-2-6.3-5.7-6.3-9.7v-60.8c0-4,2.4-7.7,6.3-9.7l58.9-30.4c1.9-1,4.1-1.5,6.3-1.5
								s4.4,0.5,6.3,1.5l58.9,30.4c3.9,2,6.3,5.7,6.3,9.7V277.4z"/>
						</g>
						<g>
							<path class="st5" d="M1599.9,446.5V478c0,2.3,1.3,4.3,3.3,5.4l31.6,16.3c1.7,0.9,3.8,0.9,5.5,0l31.6-16.3
								c2-1,3.3-3.1,3.3-5.4v-31.5c0-2.3-1.3-4.3-3.3-5.4l-31.6-16.3c-1.7-0.9-3.8-0.9-5.5,0l-31.6,16.3
								C1601.2,442.2,1599.9,444.3,1599.9,446.5z"/>
							<path class="st7" d="M1671.7,441l-30.5-15.7c-2.2-1.1-4.9-1.1-7.1,0l-30.5,15.7c-2.2,1.1-3.6,3.2-3.6,5.5V478
								c0,2.3,1.4,4.4,3.6,5.5l30.5,15.7c2.2,1.1,4.9,1.1,7.1,0l30.5-15.7c2.2-1.1,3.6-3.2,3.6-5.5v-31.5
								C1675.2,444.3,1673.9,442.2,1671.7,441z M1674,478c0,1.9-1.1,3.6-3,4.6l-30.5,15.7c-0.9,0.5-1.9,0.7-3,0.7s-2.1-0.2-3-0.7
								l-30.5-15.7c-1.8-1-3-2.7-3-4.6v-31.5c0-1.9,1.1-3.6,3-4.6l30.5-15.7c0.9-0.5,1.9-0.7,3-0.7s2.1,0.2,3,0.7l30.5,15.7
								c1.8,0.9,3,2.7,3,4.6V478z"/>
						</g>
						<g>
							<path class="st8" d="M1871.5,335.1v31.5c0,2.3,1.3,4.3,3.3,5.4l31.6,16.3c1.7,0.9,3.8,0.9,5.5,0l31.6-16.3
								c2-1,3.3-3.1,3.3-5.4v-31.5c0-2.3-1.3-4.3-3.3-5.4l-31.6-16.3c-1.7-0.9-3.8-0.9-5.5,0l-31.6,16.3
								C1872.7,330.7,1871.5,332.8,1871.5,335.1L1871.5,335.1z"/>
							<path class="st7" d="M1943.2,329.5l-30.5-15.7c-2.2-1.1-4.9-1.1-7.1,0l-30.5,15.7c-2.2,1.1-3.6,3.2-3.6,5.5v31.5
								c0,2.3,1.4,4.4,3.6,5.5l30.5,15.7c2.2,1.1,4.9,1.1,7.1,0l30.5-15.7c2.2-1.1,3.6-3.2,3.6-5.5v-31.5
								C1946.8,332.8,1945.4,330.7,1943.2,329.5z M1945.6,366.5c0,1.9-1.1,3.6-3,4.6l-30.5,15.7c-0.9,0.5-1.9,0.7-3,0.7
								s-2.1-0.2-3-0.7l-30.5-15.7c-1.8-1-3-2.7-3-4.6v-31.5c0-1.9,1.1-3.6,3-4.6l30.5-15.7c0.9-0.5,1.9-0.7,3-0.7s2.1,0.2,3,0.7
								l30.5,15.7c1.8,0.9,3,2.7,3,4.6V366.5z"/>
						</g>
						<g>
							<path class="st8" d="M1409.7,637.2v31.5c0,2.3,1.3,4.3,3.3,5.4l31.6,16.3c1.7,0.9,3.8,0.9,5.5,0l31.6-16.3
								c2-1,3.3-3.1,3.3-5.4v-31.5c0-2.3-1.3-4.3-3.3-5.4l-31.6-16.3c-1.7-0.9-3.8-0.9-5.5,0l-31.6,16.3
								C1410.9,632.9,1409.7,634.9,1409.7,637.2z"/>
							<path class="st7" d="M1481.4,631.7l-30.5-15.7c-2.2-1.1-4.9-1.1-7.1,0l-30.5,15.7c-2.2,1.1-3.6,3.2-3.6,5.5v31.5
								c0,2.3,1.4,4.4,3.6,5.5l30.5,15.7c2.2,1.1,4.9,1.1,7.1,0l30.5-15.7c2.2-1.1,3.6-3.2,3.6-5.5v-31.5
								C1485,634.9,1483.6,632.8,1481.4,631.7z M1483.8,668.6c0,1.9-1.1,3.7-3,4.6l-30.5,15.7c-0.9,0.5-1.9,0.7-3,0.7
								s-2.1-0.2-3-0.7l-30.5-15.7c-1.8-1-3-2.7-3-4.6v-31.5c0-1.9,1.1-3.7,3-4.6l30.5-15.7c0.9-0.5,1.9-0.7,3-0.7s2.1,0.2,3,0.7
								l30.5,15.7c1.8,0.9,3,2.7,3,4.6V668.6z"/>
						</g>
						<g>
							<path class="st8" d="M1484.1,588.5v22.2c0,1.6,0.9,3.1,2.3,3.8l22.3,11.5c1.2,0.6,2.7,0.6,3.9,0l22.3-11.5
								c1.4-0.7,2.3-2.2,2.3-3.8v-22.2c0-1.6-0.9-3.1-2.3-3.8l-22.3-11.5c-1.2-0.6-2.7-0.6-3.9,0l-22.3,11.5
								C1485,585.4,1484.1,586.9,1484.1,588.5z"/>
							<path class="st7" d="M1534.8,584.6l-21.6-11.1c-1.6-0.8-3.5-0.8-5,0l-21.6,11.1c-1.6,0.8-2.5,2.3-2.5,3.9v22.2
								c0,1.6,1,3.1,2.5,3.9l21.6,11.1c1.6,0.8,3.5,0.8,5,0l21.6-11.1c1.6-0.8,2.5-2.3,2.5-3.9v-22.2
								C1537.4,586.9,1536.4,585.4,1534.8,584.6z M1536.5,610.7c0,1.3-0.8,2.6-2.1,3.2l-21.6,11.1c-0.6,0.3-1.4,0.5-2.1,0.5
								s-1.5-0.2-2.1-0.5l-21.6-11.1c-1.3-0.7-2.1-1.9-2.1-3.2v-22.2c0-1.3,0.8-2.6,2.1-3.2l21.6-11.1c0.6-0.3,1.4-0.5,2.1-0.5
								s1.5,0.2,2.1,0.5l21.6,11.1c1.3,0.7,2.1,1.9,2.1,3.2V610.7z"/>
						</g>
						<g>
							<path class="st8" d="M1586.8,439.5v13.4c0,1,0.5,1.8,1.4,2.3l13.5,6.9c0.7,0.4,1.6,0.4,2.4,0l13.5-6.9
								c0.9-0.4,1.4-1.3,1.4-2.3v-13.4c0-1-0.5-1.8-1.4-2.3l-13.5-6.9c-0.7-0.4-1.6-0.4-2.4,0l-13.5,6.9
								C1587.3,437.7,1586.8,438.6,1586.8,439.5z"/>
							<path class="st7" d="M1617.4,437.2l-13-6.7c-0.9-0.5-2.1-0.5-3,0l-13,6.7c-0.9,0.5-1.5,1.4-1.5,2.4v13.4c0,1,0.6,1.9,1.5,2.4
								l13,6.7c0.9,0.5,2.1,0.5,3,0l13-6.7c0.9-0.5,1.5-1.4,1.5-2.4v-13.4C1618.9,438.6,1618.3,437.7,1617.4,437.2z M1618.4,452.9
								c0,0.8-0.5,1.6-1.3,2l-13,6.7c-0.4,0.2-0.8,0.3-1.3,0.3s-0.9-0.1-1.3-0.3l-13-6.7c-0.8-0.4-1.3-1.1-1.3-2v-13.4
								c0-0.8,0.5-1.6,1.3-2l13-6.7c0.4-0.2,0.8-0.3,1.3-0.3s0.9,0.1,1.3,0.3l13,6.7c0.8,0.4,1.3,1.1,1.3,2V452.9z"/>
						</g>
						<g>
							<path class="st8" d="M1290,636.6V650c0,1,0.5,1.8,1.4,2.3l13.5,6.9c0.7,0.4,1.6,0.4,2.4,0l13.5-6.9c0.9-0.4,1.4-1.3,1.4-2.3
								v-13.4c0-1-0.5-1.8-1.4-2.3l-13.5-6.9c-0.7-0.4-1.6-0.4-2.4,0l-13.5,6.9C1290.5,634.8,1290,635.6,1290,636.6z"/>
							<path class="st7" d="M1320.5,634.2l-13-6.7c-0.9-0.5-2.1-0.5-3,0l-13,6.7c-0.9,0.5-1.5,1.4-1.5,2.3V650c0,1,0.6,1.9,1.5,2.3
								l13,6.7c0.9,0.5,2.1,0.5,3,0l13-6.7c0.9-0.5,1.5-1.4,1.5-2.3v-13.4C1322.1,635.6,1321.5,634.7,1320.5,634.2z M1321.6,650
								c0,0.8-0.5,1.6-1.3,2l-13,6.7c-0.4,0.2-0.8,0.3-1.3,0.3s-0.9-0.1-1.3-0.3l-13-6.7c-0.8-0.4-1.3-1.2-1.3-2v-13.4
								c0-0.8,0.5-1.6,1.3-2l13-6.7c0.4-0.2,0.8-0.3,1.3-0.3s0.9,0.1,1.3,0.3l13,6.7c0.8,0.4,1.3,1.2,1.3,2V650z"/>
						</g>
						<g>
							<path class="st8" d="M1744.1,600.5V614c0,1,0.5,1.8,1.4,2.3l13.5,6.9c0.7,0.4,1.6,0.4,2.4,0l13.5-6.9
								c0.9-0.4,1.4-1.3,1.4-2.3v-13.4c0-1-0.5-1.8-1.4-2.3l-13.5-6.9c-0.7-0.4-1.6-0.4-2.4,0l-13.5,6.9
								C1744.7,598.7,1744.1,599.6,1744.1,600.5z"/>
							<path class="st7" d="M1774.7,598.2l-13-6.7c-0.9-0.5-2.1-0.5-3,0l-13,6.7c-0.9,0.5-1.5,1.4-1.5,2.3V614c0,1,0.6,1.9,1.5,2.3
								l13,6.7c0.9,0.5,2.1,0.5,3,0l13-6.7c0.9-0.5,1.5-1.4,1.5-2.3v-13.4C1776.2,599.6,1775.7,598.7,1774.7,598.2z M1775.7,614
								c0,0.8-0.5,1.6-1.3,2l-13,6.7c-0.4,0.2-0.8,0.3-1.3,0.3s-0.9-0.1-1.3-0.3l-13-6.7c-0.8-0.4-1.3-1.2-1.3-2v-13.4
								c0-0.8,0.5-1.6,1.3-2l13-6.7c0.4-0.2,0.8-0.3,1.3-0.3s0.9,0.1,1.3,0.3l13,6.7c0.8,0.4,1.3,1.2,1.3,2V614z"/>
						</g>
					</g>
				</g>
			</g>
			<g>
				<defs>
					<rect id="SVGID_00000181057042139011060840000009757463473002609050_" x="0" width="497.6" height="449.2"/>
				</defs>
				<clipPath id="SVGID_00000026867989312939913270000005106305298207366297_">
					<use xlink:href="#SVGID_00000181057042139011060840000009757463473002609050_"  style="overflow:visible;"/>
				</clipPath>
				<g style="clip-path:url(#SVGID_00000026867989312939913270000005106305298207366297_);">
					<g>
						<g>
							<path class="st5" d="M52.2,135.9c-8.1,0-16.2-1.9-23.4-5.6l-149.8-77.2c-14.5-7.5-23.4-21.3-23.4-36.2v-154.4
								c0-14.9,9-28.8,23.4-36.2l149.8-77.2c14.4-7.4,32.4-7.4,46.8,0l149.8,77.2c14.5,7.4,23.4,21.3,23.4,36.2V16.9
								c0,14.9-9,28.8-23.4,36.2L75.6,130.4C68.4,134.1,60.3,135.9,52.2,135.9L52.2,135.9z M52.2-235.4c-4,0-8,0.9-11.6,2.8
								l-149.8,77.2c-7.2,3.7-11.6,10.6-11.6,17.9V16.9c0,7.4,4.4,14.2,11.6,17.9l149.8,77.2c7.1,3.7,16,3.7,23.2,0l149.8-77.2
								c7.1-3.7,11.6-10.6,11.6-17.9v-154.4c0-7.4-4.4-14.2-11.6-17.9L63.8-232.6C60.2-234.5,56.2-235.4,52.2-235.4L52.2-235.4z"/>
							<g class="st2">
								<path class="st10" d="M225.4-173.7L75.6-250.9c-14.4-7.4-32.4-7.4-46.8,0l-149.8,77.2c-14.5,7.4-23.4,21.3-23.4,36.2V16.9
									c0,14.9,9,28.8,23.4,36.2l149.8,77.2c7.2,3.7,15.3,5.6,23.4,5.6s16.2-1.9,23.4-5.6l149.8-77.2c14.4-7.5,23.4-21.3,23.4-36.2
									v-154.4C248.9-152.4,239.9-166.2,225.4-173.7L225.4-173.7z M247.7,16.9c0,14.5-8.8,28-22.8,35.3L75,129.4
									c-6.9,3.6-14.8,5.4-22.8,5.4s-15.9-1.9-22.8-5.4l-149.8-77.2c-14.1-7.3-22.8-20.8-22.8-35.3v-154.4c0-14.5,8.8-28,22.8-35.3
									L29.3-250c6.9-3.6,14.8-5.4,22.8-5.4s15.9,1.9,22.8,5.4l149.8,77.2c14.1,7.2,22.8,20.8,22.8,35.3L247.7,16.9L247.7,16.9z"/>
								<path class="st10" d="M214.2-156.3L64.4-233.5c-3.7-1.9-7.9-2.9-12.2-2.9s-8.5,1-12.2,2.9l-149.8,77.2
									c-7.5,3.9-12.2,11.1-12.2,18.8V16.9c0,7.8,4.7,15,12.2,18.8L40,113c3.7,1.9,7.9,2.9,12.2,2.9s8.5-1,12.2-2.9l149.8-77.2
									c7.5-3.9,12.2-11.1,12.2-18.8v-154.4C226.4-145.2,221.7-152.4,214.2-156.3L214.2-156.3z M225.2,16.9
									c0,7.4-4.4,14.2-11.6,17.9L63.8,112.1c-7.1,3.7-16,3.7-23.2,0l-149.8-77.2c-7.2-3.7-11.6-10.6-11.6-17.9v-154.4
									c0-7.4,4.4-14.2,11.6-17.9l149.8-77.2c3.6-1.8,7.6-2.8,11.6-2.8s8,0.9,11.6,2.8l149.8,77.2c7.1,3.7,11.6,10.6,11.6,17.9
									L225.2,16.9L225.2,16.9z"/>
							</g>
						</g>
						<g>
							<path class="st5" d="M-166.4,216.4v105.1c0,7.5,4.2,14.5,10.9,17.9l105.7,54.5c5.8,3,12.7,3,18.5,0l105.7-54.5
								c6.7-3.5,10.9-10.4,10.9-17.9V216.4c0-7.6-4.2-14.5-10.9-17.9L-31.3,144c-5.8-3-12.7-3-18.5,0l-105.7,54.5
								C-162.2,201.9-166.4,208.8-166.4,216.4z"/>
							<path class="st7" d="M73.4,197.9l-102-52.6c-7.4-3.8-16.5-3.8-23.8,0l-102,52.6c-7.4,3.8-11.9,10.8-11.9,18.4v105.1
								c0,7.6,4.5,14.6,11.9,18.4l102,52.6c7.4,3.8,16.5,3.8,23.8,0l102-52.6c7.4-3.8,11.9-10.8,11.9-18.4V216.4
								C85.3,208.8,80.8,201.7,73.4,197.9L73.4,197.9z M84.1,321.5c0,7.2-4.3,13.9-11.3,17.5l-102,52.6c-3.4,1.8-7.4,2.7-11.3,2.7
								s-7.9-0.9-11.3-2.7l-102-52.6c-7-3.6-11.3-10.3-11.3-17.5V216.4c0-7.2,4.3-13.9,11.3-17.5l102-52.6c3.4-1.8,7.4-2.7,11.3-2.7
								s7.9,0.9,11.3,2.7l102,52.6c7,3.6,11.3,10.3,11.3,17.5L84.1,321.5L84.1,321.5z"/>
						</g>
						<g>
							<path class="st8" d="M-107.6,155.5v60.8c0,4.4,2.4,8.4,6.3,10.4l61.1,31.5c3.3,1.7,7.3,1.7,10.7,0l61.1-31.5
								c3.9-2,6.3-6,6.3-10.4v-60.8c0-4.4-2.4-8.4-6.3-10.4l-61.1-31.5c-3.3-1.7-7.3-1.7-10.7,0l-61.1,31.5
								C-105.1,147.1-107.6,151.1-107.6,155.5L-107.6,155.5z"/>
							<path class="st7" d="M31,144.9l-58.9-30.4c-4.3-2.2-9.5-2.2-13.8,0l-59,30.4c-4.3,2.2-6.9,6.3-6.9,10.6v60.8
								c0,4.4,2.6,8.4,6.9,10.6l59,30.4c4.3,2.2,9.5,2.2,13.8,0L31,226.9c4.3-2.2,6.9-6.3,6.9-10.6v-60.8
								C37.9,151.1,35.3,147,31,144.9L31,144.9z M36.7,216.3c0,4-2.4,7.7-6.3,9.7l-58.9,30.4c-1.9,1-4.1,1.5-6.3,1.5
								s-4.4-0.5-6.3-1.5l-59-30.4c-3.9-2-6.3-5.7-6.3-9.7v-60.8c0-4,2.4-7.7,6.3-9.7l59-30.4c1.9-1,4.1-1.5,6.3-1.5
								s4.4,0.5,6.3,1.5l58.9,30.4c3.9,2,6.3,5.7,6.3,9.7V216.3L36.7,216.3z"/>
						</g>
						<g>
							<path class="st5" d="M155.9-9.6v60.8c0,4.4,2.4,8.4,6.3,10.4l61.1,31.5c3.4,1.7,7.3,1.7,10.7,0l61.1-31.5
								c3.9-2,6.3-6,6.3-10.4V-9.6c0-4.4-2.4-8.4-6.3-10.4L234-51.5c-3.4-1.7-7.3-1.7-10.7,0L162.2-20C158.3-18,155.9-14,155.9-9.6z
								"/>
							<path class="st7" d="M294.5-20.3l-59-30.4c-4.3-2.2-9.5-2.2-13.8,0l-59,30.4c-4.3,2.2-6.9,6.3-6.9,10.6v60.8
								c0,4.4,2.6,8.5,6.9,10.7l59,30.4c4.3,2.2,9.5,2.2,13.8,0l59-30.4c4.3-2.2,6.9-6.3,6.9-10.7V-9.7
								C301.4-14,298.7-18.1,294.5-20.3z M300.2,51.1c0,4-2.4,7.7-6.3,9.7l-59,30.4c-1.9,1-4.1,1.5-6.3,1.5s-4.4-0.5-6.3-1.5
								l-59-30.4c-3.9-2-6.3-5.7-6.3-9.7V-9.7c0-4,2.4-7.7,6.3-9.7l59-30.4c1.9-1,4.1-1.5,6.3-1.5s4.4,0.5,6.3,1.5l59,30.4
								c3.9,2,6.3,5.7,6.3,9.7C300.2-9.7,300.2,51.1,300.2,51.1z"/>
						</g>
						<g>
							<path class="st8" d="M121.9-17.6v31.5c0,2.3,1.3,4.3,3.3,5.4l31.6,16.3c1.7,0.9,3.8,0.9,5.5,0l31.6-16.3c2-1,3.3-3.1,3.3-5.4
								v-31.5c0-2.3-1.3-4.3-3.3-5.4l-31.6-16.3c-1.7-0.9-3.8-0.9-5.5,0L125.2-23C123.2-22,121.9-19.9,121.9-17.6z"/>
							<path class="st7" d="M193.6-23.1l-30.5-15.7c-2.2-1.1-4.9-1.1-7.1,0l-30.5,15.7c-2.2,1.1-3.6,3.2-3.6,5.5v31.4
								c0,2.3,1.4,4.4,3.6,5.5L156,35c2.2,1.1,4.9,1.1,7.1,0l30.5-15.7c2.2-1.1,3.6-3.2,3.6-5.5v-31.5
								C197.2-19.9,195.9-22,193.6-23.1L193.6-23.1z M196,13.8c0,1.9-1.1,3.6-3,4.6l-30.5,15.7c-0.9,0.5-1.9,0.7-3,0.7
								s-2.1-0.2-3-0.7L126,18.4c-1.8-1-3-2.7-3-4.6v-31.5c0-1.9,1.1-3.6,3-4.6L156.6-38c0.9-0.5,1.9-0.7,3-0.7s2.1,0.2,3,0.7
								L193-22.2c1.8,0.9,3,2.7,3,4.6V13.8L196,13.8z"/>
						</g>
						<g>
							<path class="st5" d="M120.4,228.7v31.4c0,2.3,1.3,4.3,3.3,5.4l31.6,16.3c1.7,0.9,3.8,0.9,5.5,0l31.6-16.3
								c2-1,3.3-3.1,3.3-5.4v-31.4c0-2.3-1.3-4.3-3.3-5.4l-31.6-16.3c-1.7-0.9-3.8-0.9-5.5,0l-31.6,16.3
								C121.7,224.4,120.4,226.5,120.4,228.7z"/>
							<path class="st7" d="M192.2,223.2l-30.5-15.7c-2.2-1.1-4.9-1.1-7.1,0L124,223.2c-2.2,1.1-3.6,3.2-3.6,5.5v31.5
								c0,2.3,1.4,4.4,3.6,5.5l30.5,15.7c2.2,1.1,4.9,1.1,7.1,0l30.5-15.7c2.2-1.1,3.6-3.2,3.6-5.5v-31.5
								C195.8,226.4,194.4,224.3,192.2,223.2z M194.6,260.2c0,1.9-1.1,3.6-3,4.6l-30.5,15.7c-0.9,0.5-1.9,0.7-3,0.7s-2.1-0.2-3-0.7
								l-30.5-15.7c-1.8-1-3-2.7-3-4.6v-31.4c0-1.9,1.1-3.6,3-4.6l30.5-15.7c0.9-0.5,1.9-0.7,3-0.7s2.1,0.2,3,0.7l30.5,15.7
								c1.8,0.9,3,2.7,3,4.6V260.2z"/>
						</g>
						<g>
							<path class="st5" d="M97.4,148v31.4c0,2.3,1.3,4.3,3.3,5.4l31.6,16.3c1.7,0.9,3.8,0.9,5.5,0l31.6-16.3c2-1,3.3-3.1,3.3-5.4
								V148c0-2.3-1.3-4.3-3.3-5.4l-31.6-16.3c-1.7-0.9-3.8-0.9-5.5,0l-31.6,16.3C98.6,143.6,97.4,145.7,97.4,148L97.4,148z"/>
							<path class="st7" d="M169.1,142.4l-30.5-15.7c-2.2-1.1-4.9-1.1-7.1,0l-30.5,15.7c-2.2,1.1-3.6,3.2-3.6,5.5v31.4
								c0,2.3,1.4,4.4,3.6,5.5l30.5,15.7c2.2,1.1,4.9,1.1,7.1,0l30.5-15.7c2.2-1.1,3.6-3.2,3.6-5.5V148
								C172.7,145.7,171.3,143.6,169.1,142.4z M171.5,179.4c0,1.9-1.1,3.6-3,4.6L138,199.8c-0.9,0.5-1.9,0.7-3,0.7s-2.1-0.2-3-0.7
								L101.5,184c-1.8-0.9-3-2.7-3-4.6V148c0-1.9,1.1-3.6,3-4.6l30.5-15.7c0.9-0.5,1.9-0.7,3-0.7s2.1,0.2,3,0.7l30.5,15.7
								c1.8,0.9,3,2.7,3,4.6V179.4z"/>
						</g>
						<g>
							<path class="st5" d="M-26.2,7.7v31.5c0,2.3,1.3,4.3,3.3,5.4L8.7,60.8c1.7,0.9,3.8,0.9,5.5,0l31.6-16.3c2-1,3.3-3.1,3.3-5.4
								V7.7c0-2.3-1.3-4.3-3.3-5.4L14.2-13.9c-1.7-0.9-3.8-0.9-5.5,0L-22.9,2.4C-24.9,3.4-26.2,5.5-26.2,7.7z"/>
							<path class="st7" d="M45.5,2.2L15-13.5c-2.2-1.1-4.9-1.1-7.1,0L-22.6,2.2c-2.2,1.1-3.6,3.2-3.6,5.5v31.5
								c0,2.3,1.4,4.4,3.6,5.5L7.9,60.4c2.2,1.1,4.9,1.1,7.1,0l30.5-15.7c2.2-1.1,3.6-3.2,3.6-5.5V7.7C49.1,5.4,47.7,3.3,45.5,2.2z
								 M47.9,39.2c0,1.9-1.1,3.7-3,4.6L14.4,59.5c-0.9,0.5-1.9,0.7-3,0.7s-2.1-0.2-3-0.7l-30.5-15.7c-1.8-1-3-2.7-3-4.6V7.7
								c0-1.9,1.1-3.7,3-4.6L8.5-12.6c0.9-0.5,1.9-0.7,3-0.7s2.1,0.2,3,0.7L44.9,3.1c1.8,0.9,3,2.7,3,4.6V39.2L47.9,39.2z"/>
						</g>
						<g>
							<path class="st8" d="M374.2-33.8v31.5c0,2.3,1.3,4.3,3.3,5.4l31.6,16.3c1.7,0.9,3.8,0.9,5.5,0L446.2,3c2-1,3.3-3.1,3.3-5.4
								v-31.5c0-2.3-1.3-4.3-3.3-5.4l-31.6-16.3c-1.7-0.9-3.8-0.9-5.5,0l-31.6,16.3C375.4-38.1,374.2-36.1,374.2-33.8z"/>
							<path class="st7" d="M445.9-39.3L415.4-55c-2.2-1.1-4.9-1.1-7.1,0l-30.5,15.7c-2.2,1.1-3.6,3.2-3.6,5.5v31.4
								c0,2.3,1.4,4.4,3.6,5.5l30.5,15.7c2.2,1.1,4.9,1.1,7.1,0l30.5-15.7c2.2-1.1,3.6-3.2,3.6-5.5v-31.5
								C449.5-36.1,448.1-38.2,445.9-39.3L445.9-39.3z M448.3-2.3c0,1.9-1.1,3.7-3,4.6L414.8,18c-0.9,0.5-1.9,0.7-3,0.7
								s-2.1-0.2-3-0.7L378.3,2.3c-1.8-1-3-2.7-3-4.6v-31.5c0-1.9,1.1-3.7,3-4.6l30.5-15.7c0.9-0.5,1.9-0.7,3-0.7s2.1,0.2,3,0.7
								l30.5,15.7c1.8,0.9,3,2.7,3,4.6V-2.3L448.3-2.3z"/>
						</g>
						<g>
							<path class="st8" d="M-25,379.8v22.2c0,1.6,0.9,3.1,2.3,3.8l22.4,11.5c1.2,0.6,2.7,0.6,3.9,0l22.4-11.5
								c1.4-0.7,2.3-2.2,2.3-3.8v-22.2c0-1.6-0.9-3.1-2.3-3.8L3.6,364.5c-1.2-0.6-2.7-0.6-3.9,0L-22.7,376
								C-24.1,376.8-25,378.2-25,379.8z"/>
							<path class="st7" d="M25.7,375.9L4.1,364.8c-1.6-0.8-3.5-0.8-5,0l-21.6,11.1c-1.6,0.8-2.5,2.3-2.5,3.9v22.2
								c0,1.6,1,3.1,2.5,3.9l21.6,11.1c1.6,0.8,3.5,0.8,5,0L25.7,406c1.6-0.8,2.5-2.3,2.5-3.9v-22.2
								C28.2,378.2,27.2,376.8,25.7,375.9L25.7,375.9z M27.4,402.1c0,1.3-0.8,2.6-2.1,3.2L3.7,416.4c-0.6,0.3-1.4,0.5-2.1,0.5
								s-1.5-0.2-2.1-0.5l-21.6-11.1c-1.3-0.7-2.1-1.9-2.1-3.2v-22.2c0-1.3,0.8-2.6,2.1-3.2l21.6-11.1c0.6-0.3,1.4-0.5,2.1-0.5
								s1.5,0.2,2.1,0.5l21.6,11.1c1.3,0.7,2.1,1.9,2.1,3.2L27.4,402.1L27.4,402.1z"/>
						</g>
						<g>
							<path class="st8" d="M28.7,261.6V275c0,1,0.5,1.8,1.4,2.3l13.5,6.9c0.7,0.4,1.6,0.4,2.4,0l13.5-6.9c0.9-0.4,1.4-1.3,1.4-2.3
								v-13.4c0-1-0.5-1.8-1.4-2.3L46,252.4c-0.7-0.4-1.6-0.4-2.4,0l-13.5,6.9C29.3,259.8,28.7,260.6,28.7,261.6z"/>
							<path class="st7" d="M59.3,259.3l-13-6.7c-0.9-0.5-2.1-0.5-3,0l-13,6.7c-0.9,0.5-1.5,1.4-1.5,2.4V275c0,1,0.6,1.9,1.5,2.4
								l13,6.7c0.9,0.5,2.1,0.5,3,0l13-6.7c0.9-0.5,1.5-1.4,1.5-2.4v-13.4C60.8,260.6,60.2,259.8,59.3,259.3z M60.3,275
								c0,0.8-0.5,1.6-1.3,2l-13,6.7c-0.4,0.2-0.8,0.3-1.3,0.3s-0.9-0.1-1.3-0.3l-13-6.7c-0.8-0.4-1.3-1.1-1.3-2v-13.4
								c0-0.8,0.5-1.6,1.3-2l13-6.7c0.4-0.2,0.8-0.3,1.3-0.3s0.9,0.1,1.3,0.3l13,6.7c0.8,0.4,1.3,1.1,1.3,2V275z"/>
						</g>
						<g>
							<path class="st8" d="M443.4,18.7v13.4c0,1,0.5,1.8,1.4,2.3l13.5,6.9c0.7,0.4,1.6,0.4,2.4,0l13.5-6.9c0.9-0.4,1.4-1.3,1.4-2.3
								V18.7c0-1-0.5-1.8-1.4-2.3l-13.5-6.9c-0.7-0.4-1.6-0.4-2.4,0l-13.5,6.9C443.9,16.9,443.4,17.8,443.4,18.7z"/>
							<path class="st7" d="M473.9,16.4l-13-6.7c-0.9-0.5-2.1-0.5-3,0l-13,6.7c-0.9,0.5-1.5,1.4-1.5,2.4v13.4c0,1,0.6,1.9,1.5,2.3
								l13,6.7c0.9,0.5,2.1,0.5,3,0l13-6.7c0.9-0.5,1.5-1.4,1.5-2.3V18.7C475.4,17.8,474.9,16.9,473.9,16.4z M474.9,32.1
								c0,0.8-0.5,1.6-1.3,2l-13,6.7c-0.4,0.2-0.8,0.3-1.3,0.3s-0.9-0.1-1.3-0.3l-13-6.7c-0.8-0.4-1.3-1.2-1.3-2V18.7
								c0-0.8,0.5-1.6,1.3-2l13-6.7c0.4-0.2,0.8-0.3,1.3-0.3s0.9,0.1,1.3,0.3l13,6.7c0.8,0.4,1.3,1.1,1.3,2V32.1z"/>
						</g>
						<g>
							<path class="st8" d="M253.3,62.9v13.4c0,1,0.5,1.8,1.4,2.3l13.5,6.9c0.7,0.4,1.6,0.4,2.4,0l13.5-6.9c0.9-0.4,1.4-1.3,1.4-2.3
								V62.9c0-1-0.5-1.8-1.4-2.3l-13.5-6.9c-0.7-0.4-1.6-0.4-2.4,0l-13.5,6.9C253.9,61.1,253.3,62,253.3,62.9z"/>
							<path class="st7" d="M283.9,60.6l-13-6.7c-0.9-0.5-2.1-0.5-3,0l-13,6.7c-0.9,0.5-1.5,1.4-1.5,2.3v13.4c0,1,0.6,1.9,1.5,2.3
								l13,6.7c0.9,0.5,2.1,0.5,3,0l13-6.7c0.9-0.5,1.5-1.4,1.5-2.3V62.9C285.4,62,284.9,61.1,283.9,60.6z M284.9,76.3
								c0,0.8-0.5,1.6-1.3,2l-13,6.7c-0.4,0.2-0.8,0.3-1.3,0.3s-0.9-0.1-1.3-0.3l-13-6.7c-0.8-0.4-1.3-1.2-1.3-2V62.9
								c0-0.8,0.5-1.6,1.3-2l13-6.7c0.4-0.2,0.8-0.3,1.3-0.3s0.9,0.1,1.3,0.3l13,6.7c0.8,0.4,1.3,1.2,1.3,2V76.3z"/>
						</g>
						<g>
							<path class="st8" d="M59.6,369.9v13.4c0,1,0.5,1.8,1.4,2.3l13.5,6.9c0.7,0.4,1.6,0.4,2.4,0l13.5-6.9c0.9-0.4,1.4-1.3,1.4-2.3
								v-13.4c0-1-0.5-1.8-1.4-2.3l-13.5-6.9c-0.7-0.4-1.6-0.4-2.4,0l-13.5,6.9C60.1,368.1,59.6,369,59.6,369.9z"/>
							<path class="st7" d="M90.1,367.6l-13-6.7c-0.9-0.5-2.1-0.5-3,0l-13,6.7c-0.9,0.5-1.5,1.4-1.5,2.4v13.4c0,1,0.6,1.9,1.5,2.4
								l13,6.7c0.9,0.5,2.1,0.5,3,0l13-6.7c0.9-0.5,1.5-1.4,1.5-2.4v-13.4C91.6,369,91.1,368.1,90.1,367.6z M91.1,383.3
								c0,0.8-0.5,1.6-1.3,2l-13,6.7c-0.4,0.2-0.8,0.3-1.3,0.3s-0.9-0.1-1.3-0.3l-13-6.7c-0.8-0.4-1.3-1.1-1.3-2v-13.4
								c0-0.8,0.5-1.6,1.3-2l13-6.7c0.4-0.2,0.8-0.3,1.3-0.3s0.9,0.1,1.3,0.3l13,6.7c0.8,0.4,1.3,1.1,1.3,2V383.3z"/>
						</g>
					</g>
				</g>
			</g>
		</g>
		<g class="st11">
		</g>
	</g>
</g>
</svg>
